<?xml version="1.0" encoding="utf-8"?>
<!-- Generator: Adobe Illustrator 22.0.0, SVG Export Plug-In . SVG Version: 6.00 Build 0)  -->
<svg version="1.1" id="Layer_1" xmlns="http://www.w3.org/2000/svg" xmlns:xlink="http://www.w3.org/1999/xlink" x="0px" y="0px"
	 viewBox="0 0 82.8 39.6" style="enable-background:new 0 0 82.8 39.6;" xml:space="preserve">
<style type="text/css">
	.st0{fill:#231F20;}
	.st1{fill:none;}
</style>
<g>
	<path class="st0" d="M55.5,15.2c0-0.1-0.1-0.6-0.2-0.9c0-0.2-1.1-4-1.7-5.9c0-0.2-0.1-0.4-0.1-0.7C52.1,1.3,38.9-1,24.1,2.5
		C9.7,6-0.9,13.7,0.1,20.1c0,0,0,0,0,0c0,0,1.8,7.4,2,7.9c2.5,5.4,14.7,8.8,29.5,5.2C46.4,29.7,56.6,21.4,55.5,15.2z M24.4,3.8
		c13.9-3.3,26.3-1.4,27.7,4.3s-8.8,13-22.8,16.3C15.4,27.7,3,25.8,1.7,20.1C0.3,14.5,10.5,7.2,24.4,3.8z M31.3,31.9
		c-13.9,3.3-25.1,1-27.7-4.3c-0.1-0.1-0.5-1.9-1-3.6c4.7,3.7,15.4,4.5,27.1,1.8c12-2.9,21.3-8.7,23.6-14.2c0.4,1.9,0.8,3.7,0.8,4.1
		C55,21.2,45.2,28.5,31.3,31.9z"/>
	<path class="st1" d="M55.2,37.4c14.3,0,25.7-4.9,26.1-10.7c0-0.8,0-2,0-2.6c0-0.4,0.1-1.2,0.1-1.7c-3.3,5-13.9,8.6-26.3,8.6
		c-4.7,0-9.2-0.5-13.1-1.4c-2.4,1.1-5.1,2.1-7.9,2.9C38.7,35.4,46.2,37.4,55.2,37.4z"/>
	<path class="st0" d="M82.6,19c0-6.6-12.3-11.9-27.5-11.9c-0.6,0-1.1,0-1.7,0c0.1,0.2,0.1,0.4,0.2,0.6c0.1,0.3,0.1,0.5,0.1,0.8
		c0.5,0,0.9,0,1.4,0C69.4,8.5,81,13.2,81,19c0,5.8-11.6,10.6-25.9,10.6c-4,0-7.8-0.4-11.1-1c-0.6,0.3-1.3,0.6-1.9,1
		c3.9,0.9,8.3,1.4,13.1,1.4c12.5,0,23-3.6,26.3-8.6c0,0.5-0.1,1.3-0.1,1.7c0,0.6,0,1.8,0,2.6c-0.4,5.7-11.7,10.6-26.1,10.7
		c-9.1,0-16.6-1.9-21.1-4.8c-0.5,0.1-1,0.3-1.5,0.4c4.8,3.3,12.9,5.8,22.6,5.8c15.2,0,27.1-5.7,27.5-12c0-0.1,0-0.6,0.1-0.9
		C82.8,25.6,82.6,19.1,82.6,19z"/>
</g>
</svg>
